<svg viewBox="-61 0 512 512" xmlns="http://www.w3.org/2000/svg"><path d="m210 241h-30v60h-60v30h60v60h30v-60h60v-30h-60zm0 0"/><path d="m355.121094 204.6875c-5.007813-7.207031-10.589844-13.929688-15.90625-19.6875l-144.214844-185-143.628906 184.3125c-5.902344 6.445312-11.484375 13.167969-16.492188 20.375-22.824218 32.753906-34.878906 71.25-34.878906 111.3125 0 107.519531 87.480469 196 195 196s195-88.480469 195-196c0-40.0625-12.054688-78.558594-34.878906-111.3125zm-55.121094 156.3125h-60v60h-90v-60h-60v-90h60v-60h90v60h60zm0 0"/></svg>